<svg width="1882" height="939" viewBox="0 0 1882 939" fill="none" xmlns="http://www.w3.org/2000/svg">
<rect x="7.5" y="7.5" width="1867" height="924" rx="153.79" stroke="#EB3514" stroke-width="15"/>
<path d="M144 378.512V167H215.753C232.413 167 246.031 169.995 256.607 175.985C267.253 181.906 275.133 189.928 280.249 200.049C285.364 210.17 287.922 221.462 287.922 233.924C287.922 246.386 285.364 257.712 280.249 267.902C275.202 278.092 267.391 286.217 256.815 292.276C246.238 298.266 232.689 301.261 216.168 301.261H164.738V278.54H215.339C226.745 278.54 235.904 276.577 242.817 272.653C249.729 268.728 254.741 263.427 257.852 256.748C261.031 250.001 262.621 242.393 262.621 233.924C262.621 225.455 261.031 217.881 257.852 211.203C254.741 204.524 249.695 199.291 242.713 195.505C235.731 191.649 226.468 189.721 214.924 189.721H169.715V378.512H144Z" fill="#EB3514"/>
<path d="M389.019 381.817C374.641 381.817 362.025 378.409 351.173 371.593C340.389 364.776 331.955 355.24 325.872 342.985C319.858 330.729 316.851 316.408 316.851 300.021C316.851 283.497 319.858 269.073 325.872 256.748C331.955 244.424 340.389 234.853 351.173 228.037C362.025 221.221 374.641 217.813 389.019 217.813C403.398 217.813 415.979 221.221 426.763 228.037C437.615 234.853 446.049 244.424 452.063 256.748C458.146 269.073 461.188 283.497 461.188 300.021C461.188 316.408 458.146 330.729 452.063 342.985C446.049 355.24 437.615 364.776 426.763 371.593C415.979 378.409 403.398 381.817 389.019 381.817ZM389.019 359.922C399.941 359.922 408.928 357.134 415.979 351.557C423.03 345.98 428.249 338.647 431.636 329.559C435.023 320.47 436.717 310.624 436.717 300.021C436.717 289.418 435.023 279.538 431.636 270.381C428.249 261.223 423.03 253.822 415.979 248.176C408.928 242.53 399.941 239.707 389.019 239.707C378.097 239.707 369.111 242.53 362.06 248.176C355.009 253.822 349.79 261.223 346.403 270.381C343.016 279.538 341.322 289.418 341.322 300.021C341.322 310.624 343.016 320.47 346.403 329.559C349.79 338.647 355.009 345.98 362.06 351.557C369.111 357.134 378.097 359.922 389.019 359.922Z" fill="#EB3514"/>
<path d="M529.208 378.512L480.681 219.878H506.396L540.822 341.332H542.481L576.491 219.878H602.621L636.216 340.919H637.875L672.3 219.878H698.016L649.489 378.512H625.433L590.593 256.645H588.104L553.264 378.512H529.208Z" fill="#EB3514"/>
<path d="M791.725 381.817C776.379 381.817 763.141 378.443 752.012 371.696C740.952 364.88 732.415 355.378 726.401 343.191C720.456 330.936 717.483 316.683 717.483 300.434C717.483 284.185 720.456 269.864 726.401 257.471C732.415 245.009 740.779 235.301 751.494 228.347C762.277 221.324 774.858 217.813 789.237 217.813C797.532 217.813 805.724 219.19 813.811 221.944C821.899 224.698 829.261 229.173 835.897 235.37C842.533 241.497 847.822 249.622 851.762 259.743C855.702 269.864 857.672 282.326 857.672 297.13V307.457H734.903V286.389H832.787C832.787 277.438 830.989 269.451 827.395 262.428C823.869 255.405 818.823 249.863 812.256 245.801C805.758 241.738 798.085 239.707 789.237 239.707C779.49 239.707 771.056 242.117 763.936 246.937C756.885 251.688 751.459 257.884 747.657 265.527C743.855 273.169 741.954 281.363 741.954 290.107V304.152C741.954 316.133 744.028 326.288 748.176 334.619C752.392 342.881 758.233 349.181 765.699 353.519C773.165 357.788 781.84 359.922 791.725 359.922C798.154 359.922 803.961 359.027 809.145 357.237C814.399 355.378 818.927 352.624 822.729 348.975C826.531 345.257 829.469 340.644 831.542 335.136L855.184 341.745C852.695 349.732 848.513 356.755 842.637 362.814C836.761 368.804 829.503 373.486 820.862 376.86C812.221 380.165 802.509 381.817 791.725 381.817Z" fill="#EB3514"/>
<path d="M894.897 378.512V219.878H918.538V243.838H920.197C923.101 235.989 928.354 229.621 935.958 224.732C943.562 219.844 952.134 217.399 961.673 217.399C963.471 217.399 965.717 217.434 968.413 217.503C971.109 217.572 973.148 217.675 974.531 217.813V242.599C973.701 242.393 971.8 242.083 968.828 241.67C965.925 241.188 962.848 240.947 959.599 240.947C951.857 240.947 944.945 242.565 938.861 245.801C932.847 248.968 928.078 253.374 924.552 259.02C921.096 264.597 919.368 270.966 919.368 278.127V378.512H894.897Z" fill="#EB3514"/>
<path d="M1065.47 381.817C1050.12 381.817 1036.88 378.443 1025.75 371.696C1014.69 364.88 1006.16 355.378 1000.14 343.191C994.197 330.936 991.225 316.683 991.225 300.434C991.225 284.185 994.197 269.864 1000.14 257.471C1006.16 245.009 1014.52 235.301 1025.24 228.347C1036.02 221.324 1048.6 217.813 1062.98 217.813C1071.27 217.813 1079.47 219.19 1087.55 221.944C1095.64 224.698 1103 229.173 1109.64 235.37C1116.27 241.497 1121.56 249.622 1125.5 259.743C1129.44 269.864 1131.41 282.326 1131.41 297.13V307.457H1008.64V286.389H1106.53C1106.53 277.438 1104.73 269.451 1101.14 262.428C1097.61 255.405 1092.56 249.863 1086 245.801C1079.5 241.738 1071.83 239.707 1062.98 239.707C1053.23 239.707 1044.8 242.117 1037.68 246.937C1030.63 251.688 1025.2 257.884 1021.4 265.527C1017.6 273.169 1015.7 281.363 1015.7 290.107V304.152C1015.7 316.133 1017.77 326.288 1021.92 334.619C1026.13 342.881 1031.98 349.181 1039.44 353.519C1046.91 357.788 1055.58 359.922 1065.47 359.922C1071.9 359.922 1077.7 359.027 1082.89 357.237C1088.14 355.378 1092.67 352.624 1096.47 348.975C1100.27 345.257 1103.21 340.644 1105.28 335.136L1128.93 341.745C1126.44 349.732 1122.25 356.755 1116.38 362.814C1110.5 368.804 1103.24 373.486 1094.6 376.86C1085.96 380.165 1076.25 381.817 1065.47 381.817Z" fill="#EB3514"/>
<path d="M1228.78 381.817C1215.51 381.817 1203.79 378.478 1193.63 371.799C1183.47 365.052 1175.52 355.55 1169.78 343.295C1164.04 330.97 1161.17 316.408 1161.17 299.608C1161.17 282.946 1164.04 268.487 1169.78 256.232C1175.52 243.976 1183.5 234.509 1193.73 227.83C1203.96 221.152 1215.78 217.813 1229.19 217.813C1239.56 217.813 1247.75 219.534 1253.77 222.976C1259.85 226.35 1264.48 230.206 1267.66 234.543C1270.91 238.812 1273.43 242.324 1275.23 245.078H1277.31V167H1301.78V378.512H1278.14V354.139H1275.23C1273.43 357.03 1270.88 360.68 1267.56 365.086C1264.24 369.424 1259.51 373.314 1253.35 376.756C1247.2 380.13 1239.01 381.817 1228.78 381.817ZM1232.1 359.922C1241.91 359.922 1250.21 357.375 1256.98 352.28C1263.76 347.116 1268.91 339.99 1272.43 330.901C1275.96 321.744 1277.72 311.175 1277.72 299.195C1277.72 287.353 1275.99 276.99 1272.54 268.109C1269.08 259.158 1263.96 252.204 1257.19 247.247C1250.42 242.22 1242.05 239.707 1232.1 239.707C1221.73 239.707 1213.09 242.358 1206.17 247.66C1199.33 252.892 1194.18 260.019 1190.72 269.038C1187.34 277.989 1185.64 288.041 1185.64 299.195C1185.64 310.487 1187.37 320.746 1190.83 329.972C1194.35 339.129 1199.54 346.427 1206.38 351.867C1213.29 357.237 1221.87 359.922 1232.1 359.922Z" fill="#EB3514"/>
<path d="M1435.43 378.512V167H1459.9V245.078H1461.98C1463.77 242.324 1466.26 238.812 1469.44 234.543C1472.69 230.206 1477.32 226.35 1483.34 222.976C1489.42 219.534 1497.65 217.813 1508.02 217.813C1521.43 217.813 1533.25 221.152 1543.48 227.83C1553.71 234.509 1561.69 243.976 1567.43 256.232C1573.17 268.487 1576.04 282.946 1576.04 299.608C1576.04 316.408 1573.17 330.97 1567.43 343.295C1561.69 355.55 1553.74 365.052 1543.58 371.799C1533.42 378.478 1521.7 381.817 1508.43 381.817C1498.2 381.817 1490.01 380.13 1483.86 376.756C1477.7 373.314 1472.97 369.424 1469.65 365.086C1466.33 360.68 1463.77 357.03 1461.98 354.139H1459.07V378.512H1435.43ZM1459.49 299.195C1459.49 311.175 1461.25 321.744 1464.78 330.901C1468.3 339.99 1473.45 347.116 1480.23 352.28C1487 357.375 1495.3 359.922 1505.11 359.922C1515.34 359.922 1523.88 357.237 1530.72 351.867C1537.64 346.427 1542.82 339.129 1546.28 329.972C1549.8 320.746 1551.57 310.487 1551.57 299.195C1551.57 288.041 1549.84 277.989 1546.38 269.038C1542.99 260.019 1537.84 252.892 1530.93 247.66C1524.09 242.358 1515.48 239.707 1505.11 239.707C1495.16 239.707 1486.79 242.22 1480.02 247.247C1473.24 252.204 1468.13 259.158 1464.67 268.109C1461.22 276.99 1459.49 287.353 1459.49 299.195Z" fill="#EB3514"/>
<path d="M1623.53 438C1619.38 438 1615.68 437.656 1612.43 436.967C1609.18 436.348 1606.94 435.728 1605.69 435.108L1611.91 413.627C1617.86 415.141 1623.11 415.692 1627.67 415.279C1632.24 414.866 1636.28 412.835 1639.81 409.186C1643.4 405.605 1646.68 399.787 1649.66 391.732L1654.22 379.338L1595.32 219.878H1621.87L1665.83 346.29H1667.49L1711.46 219.878H1738L1670.39 401.646C1667.35 409.84 1663.59 416.622 1659.09 421.992C1654.6 427.431 1649.38 431.459 1643.43 434.075C1637.56 436.692 1630.92 438 1623.53 438Z" fill="#EB3514"/>
<path d="M475.919 768.528V721.04L597.281 559.812H485.886V511.151H670.565V559.226L550.378 719.867H682.29V768.528H475.919Z" fill="#EB3514"/>
<path d="M814.498 773.219C775.805 773.219 746.1 761.884 725.382 739.214C704.669 716.154 694.312 682.736 694.312 638.96C694.312 596.357 704.863 563.721 725.968 541.051C747.077 517.991 776.976 506.461 815.673 506.461C852.412 506.461 880.555 518.772 900.097 543.396C919.64 568.02 929.411 603.783 929.411 650.686V653.031H764.665C764.665 678.046 769.159 697.002 778.151 709.9C787.531 722.408 800.819 728.661 818.015 728.661C841.47 728.661 856.321 718.499 862.575 698.175L925.894 703.451C907.523 749.963 870.392 773.219 814.498 773.219ZM814.498 548.673C798.864 548.673 786.747 554.145 778.151 565.089C769.942 576.033 765.642 591.276 765.251 610.819H864.921C863.746 590.103 858.667 574.665 849.675 564.503C841.078 553.949 829.353 548.673 814.498 548.673Z" fill="#EB3514"/>
<path d="M955.619 768.528V571.538C955.619 557.467 955.421 545.742 955.03 536.361C954.642 526.981 954.251 518.577 953.859 511.151H1017.18C1017.57 513.887 1018.15 522.681 1018.94 537.533C1020.11 551.995 1020.69 561.571 1020.69 566.261H1021.28C1027.93 548.282 1033.79 535.579 1038.87 528.153C1043.95 520.727 1049.81 515.255 1056.46 511.737C1063.49 508.22 1072.29 506.461 1082.84 506.461C1091.44 506.461 1098.28 507.633 1103.36 509.978V565.675C1092.42 563.33 1083.04 562.158 1075.22 562.158C1058.41 562.158 1045.32 568.997 1035.94 582.677C1026.95 595.966 1022.46 615.9 1022.46 642.478V768.528H955.619Z" fill="#EB3514"/>
<path d="M1286.93 768.528V624.303C1286.93 578.964 1271.68 556.294 1241.19 556.294C1225.17 556.294 1212.08 563.33 1201.92 577.401C1192.14 591.081 1187.26 608.864 1187.26 630.752V768.528H1120.42V569.193C1120.42 555.513 1120.23 544.178 1119.83 535.188C1119.45 526.199 1119.05 518.186 1118.66 511.151H1181.98C1182.37 514.278 1182.96 522.485 1183.74 535.775C1184.91 548.673 1185.5 557.662 1185.5 562.744H1186.08C1195.08 543.201 1206.41 528.935 1220.09 519.945C1233.77 510.955 1249.99 506.461 1268.75 506.461C1296.11 506.461 1317.02 514.864 1331.49 531.671C1346.34 548.477 1353.76 573.101 1353.76 605.542V768.528H1286.93Z" fill="#EB3514"/>
<path d="M1392.62 501.244V460.81L1459.46 438V478.434L1392.62 501.244ZM1392.62 768.529V526.358L1459.46 503.548V768.529H1392.62Z" fill="#EB3514"/>
<path d="M1738 639.547C1738 681.368 1726.27 714.2 1702.82 738.042C1679.76 761.493 1647.91 773.219 1607.26 773.219C1567 773.219 1535.34 761.493 1512.28 738.042C1489.61 714.2 1478.28 681.368 1478.28 639.547C1478.28 598.116 1489.61 565.675 1512.28 542.224C1535.34 518.382 1567.39 506.461 1608.43 506.461C1650.25 506.461 1682.3 517.991 1704.58 541.051C1726.86 563.721 1738 596.552 1738 639.547ZM1667.65 639.547C1667.65 609.06 1662.56 586.977 1652.4 573.297C1642.63 559.617 1628.36 552.777 1609.6 552.777C1568.95 552.777 1548.63 581.7 1548.63 639.547C1548.63 668.079 1553.51 689.967 1563.29 705.21C1573.45 720.063 1587.72 727.489 1606.08 727.489C1647.12 727.489 1667.65 698.175 1667.65 639.547Z" fill="#EB3514"/>
<path d="M144 533.014L144 628.385L292.334 589.442C310.819 584.589 327.599 601.621 322.471 620.032L281.108 768.533H375.689L395.289 672.326C396.925 664.296 394.481 655.976 388.762 650.107L262.458 520.479C256.58 514.446 248.037 511.816 239.783 513.498L144 533.014Z" fill="#EB3514"/>
</svg>
